<svg width="35" height="41" viewBox="0 0 35 41" fill="none" xmlns="http://www.w3.org/2000/svg">
<g clip-path="url(#clip0_66_69)">
<path d="M34.1515 0.5H0.848485C0.37988 0.5 0 0.858172 0 1.3V39.7C0 40.1418 0.37988 40.5 0.848485 40.5H34.1515C34.6201 40.5 35 40.1418 35 39.7V1.3C35 0.858172 34.6201 0.5 34.1515 0.5Z" fill="black"/>
<path d="M32.5605 2H2.43931C1.9707 2 1.59082 2.35817 1.59082 2.8V31.2C1.59082 31.6418 1.9707 32 2.43931 32H32.5605C33.0291 32 33.409 31.6418 33.409 31.2V2.8C33.409 2.35817 33.0291 2 32.5605 2Z" fill="white"/>
<path d="M6.59982 27.2093V27.2593H6.65285H13.8842H13.9373V27.2093V20.4089V20.3589H13.8842H6.65285H6.59982V20.4089V27.2093ZM6.59982 13.5907V13.6407H6.65285H13.8842H13.9373V13.5907V6.77253V6.72253H13.8842H6.65285H6.59982V6.77253V13.5907ZM21.0626 13.5907V13.6407H21.1157H28.3471H28.4001V13.5907V6.77253V6.72253H28.3471H21.1157H21.0626V6.77253V13.5907ZM28.4001 20.4089V18.1862H30.7045V24.9043H23.5791V22.6816V22.6316H23.5261H21.1157H21.0626V22.6816V29.4498H18.7583V18.1862H25.8835V20.4089V20.4589H25.9365H28.3471H28.4001V20.4089ZM11.4208 22.7316V24.9043H9.11634V22.7316H11.4208ZM11.4208 9.09525V11.268H9.11634V9.09525H11.4208ZM25.8835 9.09525V11.268H23.5791V9.09525H25.8835ZM16.2417 18.1862V29.4498H4.29541V18.1862H16.2417ZM25.8835 27.2771V29.4498H23.5791V27.2771H25.8835ZM30.7045 27.2771V29.4498H28.4001V27.2771H30.7045ZM16.2417 4.5498V15.8134H4.29541V4.5498H16.2417ZM30.7045 4.5498V15.8134H18.7583V4.5498H30.7045Z" fill="black" stroke="black"/>
</g>
<defs>
<clipPath id="clip0_66_69">
<rect width="35" height="40" fill="white" transform="translate(0 0.5)"/>
</clipPath>
</defs>
</svg>
