<svg width="14" height="14" viewBox="0 0 14 14" fill="none" xmlns="http://www.w3.org/2000/svg">
<path d="M10.0916 7.78733C9.93858 7.78668 9.79193 7.72593 9.68328 7.61816C9.57464 7.50887 9.51365 7.36102 9.51365 7.20691C9.51365 7.0528 9.57464 6.90496 9.68328 6.79566L10.9199 5.559C11.0284 5.45064 11.1145 5.32197 11.1732 5.18034C11.2319 5.03871 11.2621 4.8869 11.2621 4.73358C11.2621 4.58026 11.2319 4.42845 11.1732 4.28682C11.1145 4.14518 11.0284 4.01651 10.9199 3.90816L10.0916 3.07983C9.86852 2.86897 9.57318 2.75148 9.2662 2.75148C8.95922 2.75148 8.66388 2.86897 8.44078 3.07983L7.20411 4.3165C7.0923 4.40596 6.95148 4.45117 6.80848 4.44351C6.66548 4.43585 6.53029 4.37586 6.42867 4.27496C6.32705 4.17406 6.2661 4.0393 6.25742 3.89636C6.24874 3.75342 6.29295 3.61228 6.38161 3.49983L7.61828 2.26316C8.06313 1.8388 8.65432 1.60205 9.26911 1.60205C9.88391 1.60205 10.4751 1.8388 10.9199 2.26316L11.7424 3.08566C11.9594 3.30237 12.1315 3.55971 12.2489 3.84297C12.3663 4.12623 12.4268 4.42986 12.4268 4.7365C12.4268 5.04313 12.3663 5.34676 12.2489 5.63002C12.1315 5.91329 11.9594 6.17063 11.7424 6.38733L10.4999 7.61816C10.3913 7.72593 10.2446 7.78668 10.0916 7.78733Z" fill="#00BF9A"/>
<path d="M4.73079 12.4249C4.42428 12.4252 4.12073 12.365 3.83747 12.2479C3.55422 12.1308 3.29681 11.9591 3.07996 11.7424L2.25746 10.9199C2.04051 10.7032 1.86841 10.4459 1.75098 10.1626C1.63356 9.87938 1.57312 9.57575 1.57312 9.26912C1.57312 8.96248 1.63356 8.65885 1.75098 8.37559C1.86841 8.09232 2.04051 7.83499 2.25746 7.61828L3.49996 6.38161C3.61241 6.29295 3.75355 6.24874 3.89649 6.25742C4.03943 6.2661 4.17418 6.32705 4.27508 6.42867C4.37598 6.53029 4.43597 6.66548 4.44364 6.80848C4.4513 6.95148 4.40609 7.0923 4.31662 7.20411L3.07996 8.44078C2.97148 8.54913 2.88543 8.6778 2.82672 8.81943C2.76801 8.96107 2.73779 9.11288 2.73779 9.2662C2.73779 9.41952 2.76801 9.57133 2.82672 9.71296C2.88543 9.85459 2.97148 9.98326 3.07996 10.0916L3.90829 10.9199C4.13139 11.1308 4.42673 11.2483 4.73371 11.2483C5.04068 11.2483 5.33602 11.1308 5.55912 10.9199L6.79579 9.68328C6.84669 9.61872 6.91067 9.56566 6.98352 9.52755C7.05637 9.48945 7.13645 9.46718 7.21851 9.4622C7.30057 9.45722 7.38275 9.46964 7.45968 9.49865C7.5366 9.52765 7.60653 9.57259 7.66486 9.63052C7.7232 9.68844 7.76864 9.75805 7.79819 9.83476C7.82775 9.91148 7.84075 9.99357 7.83635 10.0757C7.83196 10.1578 7.81026 10.238 7.77267 10.3111C7.73509 10.3842 7.68248 10.4486 7.61829 10.4999L6.38162 11.7366C6.16525 11.9543 5.90805 12.1271 5.62478 12.2452C5.3415 12.3634 5.0377 12.4244 4.73079 12.4249Z" fill="#00BF9A"/>
<path d="M5.14494 9.43816C5.06817 9.43861 4.99207 9.42389 4.921 9.39486C4.84993 9.36584 4.78528 9.32306 4.73078 9.269C4.6761 9.21477 4.6327 9.15025 4.60309 9.07917C4.57347 9.00808 4.55823 8.93184 4.55823 8.85483C4.55823 8.77782 4.57347 8.70158 4.60309 8.63049C4.6327 8.55941 4.6761 8.49489 4.73078 8.44066L8.44661 4.73066C8.5559 4.62202 8.70375 4.56104 8.85786 4.56104C9.01197 4.56104 9.15982 4.62202 9.26911 4.73066C9.32378 4.78489 9.36718 4.84941 9.3968 4.92049C9.42641 4.99158 9.44166 5.06782 9.44166 5.14483C9.44166 5.22184 9.42641 5.29808 9.3968 5.36917C9.36718 5.44025 9.32378 5.50477 9.26911 5.559L5.55328 9.269C5.44462 9.37677 5.29797 9.43752 5.14494 9.43816Z" fill="#00BF9A"/>
</svg>
