<svg width="300" height="300" viewBox="0 0 300 300" fill="none" xmlns="http://www.w3.org/2000/svg">
<rect width="300" height="300" rx="8" fill="white"/>
<path d="M47.2273 252.095V252.595H47.7273H115.909H116.409V252.095V184.091V183.591H115.909H47.7273H47.2273V184.091V252.095ZM47.2273 115.909V116.409H47.7273H115.909H116.409V115.909V47.7273V47.2273H115.909H47.7273H47.2273V47.7273V115.909ZM183.591 115.909V116.409H184.091H252.273H252.773V115.909V47.7273V47.2273H252.273H184.091H183.591V47.7273V115.909ZM252.773 184.091V161.864H274.5V229.045H207.318V206.818V206.318H206.818H184.091H183.591V206.818V274.5H161.864V161.864H229.045V184.091V184.591H229.545H252.273H252.773V184.091ZM92.6818 207.318V229.045H70.9545V207.318H92.6818ZM92.6818 70.9545V92.6818H70.9545V70.9545H92.6818ZM229.045 70.9545V92.6818H207.318V70.9545H229.045ZM138.136 161.864V274.5H25.5V161.864H138.136ZM229.045 252.773V274.5H207.318V252.773H229.045ZM274.5 252.773V274.5H252.773V252.773H274.5ZM138.136 25.5V138.136H25.5V25.5H138.136ZM274.5 25.5V138.136H161.864V25.5H274.5Z" fill="#D9D9D9" stroke="#D9D9D9"/>
</svg>
