<svg width="14" height="14" viewBox="0 0 14 14" fill="none" xmlns="http://www.w3.org/2000/svg">
<g clip-path="url(#clip0_63_2)">
<path d="M2.1875 4.15625H11.8125C11.9285 4.15625 12.0398 4.11016 12.1219 4.02811C12.2039 3.94606 12.25 3.83478 12.25 3.71875C12.25 3.60272 12.2039 3.49144 12.1219 3.40939C12.0398 3.32734 11.9285 3.28125 11.8125 3.28125H2.1875C2.07147 3.28125 1.96019 3.32734 1.87814 3.40939C1.79609 3.49144 1.75 3.60272 1.75 3.71875C1.75 3.83478 1.79609 3.94606 1.87814 4.02811C1.96019 4.11016 2.07147 4.15625 2.1875 4.15625Z" fill="black"/>
<path d="M3.5 5.46875C3.38397 5.46875 3.27269 5.51484 3.19064 5.59689C3.10859 5.67894 3.0625 5.79022 3.0625 5.90625C3.0625 6.02228 3.10859 6.13356 3.19064 6.21561C3.27269 6.29766 3.38397 6.34375 3.5 6.34375H10.5C10.616 6.34375 10.7273 6.29766 10.8094 6.21561C10.8914 6.13356 10.9375 6.02228 10.9375 5.90625C10.9375 5.79022 10.8914 5.67894 10.8094 5.59689C10.7273 5.51484 10.616 5.46875 10.5 5.46875H3.5Z" fill="black"/>
<path d="M11.8125 7.65625H2.1875C2.07147 7.65625 1.96019 7.70234 1.87814 7.78439C1.79609 7.86644 1.75 7.97772 1.75 8.09375C1.75 8.20978 1.79609 8.32106 1.87814 8.40311C1.96019 8.48516 2.07147 8.53125 2.1875 8.53125H11.8125C11.9285 8.53125 12.0398 8.48516 12.1219 8.40311C12.2039 8.32106 12.25 8.20978 12.25 8.09375C12.25 7.97772 12.2039 7.86644 12.1219 7.78439C12.0398 7.70234 11.9285 7.65625 11.8125 7.65625Z" fill="black"/>
<path d="M10.5 9.84375H3.5C3.38397 9.84375 3.27269 9.88984 3.19064 9.97189C3.10859 10.0539 3.0625 10.1652 3.0625 10.2812C3.0625 10.3973 3.10859 10.5086 3.19064 10.5906C3.27269 10.6727 3.38397 10.7188 3.5 10.7188H10.5C10.616 10.7188 10.7273 10.6727 10.8094 10.5906C10.8914 10.5086 10.9375 10.3973 10.9375 10.2812C10.9375 10.1652 10.8914 10.0539 10.8094 9.97189C10.7273 9.88984 10.616 9.84375 10.5 9.84375Z" fill="black"/>
</g>
<defs>
<clipPath id="clip0_63_2">
<rect width="14" height="14" fill="white"/>
</clipPath>
</defs>
</svg>
